<svg xmlns="http://www.w3.org/2000/svg" width="160" height="100" viewBox="0 0 160 100" role="img" aria-label="United Kingdom flag">
  <rect width="160" height="100" fill="#012169"/>
  <!-- white diagonals -->
  <path d="M0,0 L18,0 L160,82 L160,100 L142,100 L0,18 Z" fill="#ffffff"/>
  <path d="M160,0 L142,0 L0,82 L0,100 L18,100 L160,18 Z" fill="#ffffff"/>
  <!-- red diagonals -->
  <path d="M0,0 L10,0 L160,90 L160,100 L150,100 L0,10 Z" fill="#C8102E"/>
  <path d="M160,0 L150,0 L0,90 L0,100 L10,100 L160,10 Z" fill="#C8102E"/>
  <!-- white cross -->
  <rect x="0" y="40" width="160" height="20" fill="#ffffff"/>
  <rect x="70" y="0" width="20" height="100" fill="#ffffff"/>
  <!-- red cross -->
  <rect x="0" y="44" width="160" height="12" fill="#C8102E"/>
  <rect x="74" y="0" width="12" height="100" fill="#C8102E"/>
</svg>
